# xmcd
#
# Track frame offsets: 
#        150
#        12057
#        33185
#        59442
#        69890
#        82272
#        94922
#        111007
#        126562
#        140617
#        157975
#        176545
#
# Disc length: 2632 seconds
#
# Revision: 3
# Processed by: cddbd v1.5.2PL0 Copyright (c) Steve Scherf et al.
# Submitted via: ExactAudioCopy v0.95b4
#
DISCID=9d0a460c
DTITLE=Various Artist - The Best of alt.country: Exposed Roots [CD
DTITLE=1)
DYEAR=1999
DGENRE=Alt Country
TTITLE0=Lucinda Williams - Passionate Kisses
TTITLE1=Blue Mountain - Blue Canoe
TTITLE2=Gillian Welch - My Morphine
TTITLE3=Whiskeytown - Nervous Breakdown
TTITLE4=Golden Smog - Looking Forward To Seeing You
TTITLE5=Jimmie Dale Gilmore - Dallas
TTITLE6=Freakwater - Picture In My Mind
TTITLE7=Meat Puppets - Lost
TTITLE8=Gourds - I Like Drinking
TTITLE9=BR5-49 - Bettie Bettie
TTITLE10=Tangletown - See Right Through
TTITLE11=Cheri Knight - Black Eyed Susie
EXTD=YEAR: 1999
EXTT0=
EXTT1=
EXTT2=
EXTT3=
EXTT4=
EXTT5=
EXTT6=
EXTT7=
EXTT8=
EXTT9=
EXTT10=
EXTT11=
PLAYORDER=
